/* XPM */
static char *result[] = {
/* columns rows colors chars-per-pixel */
"64 64 22 1 ",
"  c black",
". c #010000",
"X c #000100",
"o c #000001",
"O c #010001",
"+ c #403848",
"@ c #413848",
"# c #403948",
"$ c #403849",
"% c #685070",
"& c #695070",
"* c #685170",
"= c #685071",
"- c #685171",
"; c #C286FE",
": c #C386FE",
"> c #C287FE",
", c #C387FE",
"< c #C286FF",
"1 c #C386FF",
"2 c #C287FF",
"3 c #C387FF",
/* pixels */
"11111111111111111111111111111<1111111111111111111111111111:11111",
"1111111111111:131111111111111111111111111113111111111111111<1111",
"111311111111111111111111111311:1111131111111<1111111111111111111",
"1131111111<111:1111111:1111111111111111111111111111111<131111111",
"11<111111111113111111111111111111:111111111111111111111<111131<1",
"1111111111<111111111111113111<11111<1<1111111111111111111;131111",
"1111311111111111111111111111111111:111111111<1111<1111111:111111",
"1111111111111111111111113111111:1<11111111111<111<1<111:11111111",
"1111:111111113111311:1111<1131113113111111111111111111;111111111",
"11131111<111111111111111311111111:1111111:1111<113111111111:1<11",
"111111111111,111111<:11111111111111111:1111111111111111111:<1111",
"11<111<1111<11111113311111111311111111111111111111:111:111111:11",
"111111111111111111311111111<11111111111111111<111111111111111111",
"1111<<111111131<11111111131111111111111<1<111<<1111111111111:111",
"11113111111;11<1<111111111311::111111311111111:11<11111111111111",
"1111111111<111111111111111<11111111<11<11131113111111:1111111111",
"1111111111111111111111111:3111111111131131111111111<1111:11111<1",
":11:11111111111111311111*%%%%%%%%%%%%%%%%%11131111111<11111<1<11",
"11111111:1111111<11:1121%%%%&=%%%%%%%%%%%%11111111:111111<111111",
"1111111111111111111*%%%%%%%%%&%%%%%%%%=%%%%%%%%1111<1131<11<1311",
"1111111111111111111%%%&--%%%%%%%%%%%%*&=%%%%%%%111111:111:111111",
"11111111111112111%%%%%%%$+++++++++++++++++%%%%%%%111<1<111111111",
"11111<113111:1111%%%%%&%++++#+++++@+++++$+%%%%%%%111111111111111",
"1<1111111111:11%%%%++++++++@++++++++@@+++++++++%%%%1111111<111:1",
"111111111111111%%%%+@+++@++++++++$++++++$++++++%%%&1111111111111",
"111311111111111%%&%++++++++@++++++++$++++++++++%%%=1113111111111",
"111111111111111%%+++++++++    .   .     +++$+++++%%:111111111111",
"111313111111111%%+++++++++o  ..      .  @++#+++++%%311111:1:1111",
"11111111:111111%%++++  o     . .          X +++++%%1311111111311",
"11<111111131111%%+$++        X  o     .     +++++%%1111111113111",
":11111111111111%*++ .       o        X   X     ++%%1::<111111311",
"311113133111111%%++         XX             X   ++%%1111111111111",
"111111111111111%%++X                           ++&&1111111113<11",
"1:11:111311:111%%     o  o           o X         %%1111111111111",
"1:11111:1111111%%             X   .  o   o    .X &%1111111111:11",
"11:11111111<111%%.      XoX o  .   X        o  oX%%111111<::1111",
"1111111111<1311%%    o     .     X  .           o%%1111111111111",
"1111131:1<11111%%  .             o o X    X      %%<111111111111",
"11111<111311111%%                 .       o     o%%1111111111111",
"11311131<111113*%.o                  o .     o   %%1111111311111",
"111111111111:11=% o  o           X      .   o  OX&%1111111<11111",
"11113111111<11,%%  X                      .  .   %%311111:11<1:1",
"11111111111<111&%     X                          =%1111111111111",
"111111111111113=%                      o.  .   o %%:111111111113",
"111111111111<11%%++      o                     $+%%11111<;11<111",
"11111<111:11131%%$+          o             o   ++%%12:111:111111",
"111<1111111111111%%++         X   .           o%%113111111<11131",
"11111111131111111%%++     X     o      X       =%111111111111311",
"1111111<11111111111%%+++++      o .       ++%%%1<111111111111111",
"11<111111<11111:111%%+++++    X         X ++=%%11111111:11111111",
"1111<:1111111<1111:%%+++++        o      .++%%%11111131111111111",
"11111111311111111111111111%%%%%%%%=%&%%%%&1131111111111<1<111111",
"1111111:1<111111111:<11111%%%=%=%%%%%&%%%%1311111<1111111111:111",
"11111<11111:111111111131111111111111111111111111:11:1<1:1111111<",
"1111111113311111111111111111:1111111:1:1111111111<11:1111111:1:1",
"1111111111111111:,:1111111111:11111111111111111111<1111:11111111",
"1111<111111111111:111111111111111111111111111<1111111111111111:1",
"113111111<111111111111111111111111111111111111111<1131111,1:1111",
"1111,1111311113:11111111311111111111111111111111111111<1311:1113",
"1111<111111111<111<3:11131<11<131111111111111131111131111<111111",
"1:111111111111111111111111111111111<11111311111111111111>3111111",
"111111111111:1111111111111111111111111111:1111:11111311111111111",
"1<11111111111:1111111111111<131111111111:111111311111111111:1131",
"1111111111111111111<11<11111111111111111111111111111311111111111"
};
