/* XPM */
static char *result[] = {
/* columns rows colors chars-per-pixel */
"64 64 35 1 ",
"  c black",
". c #010000",
"X c #000100",
"o c #000001",
"O c #010001",
"+ c #403848",
"@ c #413848",
"# c #403948",
"$ c #403849",
"% c #403949",
"& c #685070",
"* c #695070",
"= c #685170",
"- c #685071",
"; c #987838",
": c #997838",
"> c #C0A848",
", c #C1A848",
"< c #C0A948",
"1 c #C0A849",
"2 c #E0C858",
"3 c #E1C858",
"4 c #E0C958",
"5 c #E0C859",
"6 c #F8E8A0",
"7 c #F9E8A0",
"8 c #F8E9A0",
"9 c #F8E8A1",
"0 c #C286FE",
"q c #C386FE",
"w c #C387FE",
"e c #C286FF",
"r c #C386FF",
"t c #C287FF",
"y c #C387FF",
/* pixels */
"rrreryryrrrqrrqrrrreryrqrrrrrrrrrrrrrrrrrrrqrrrrrrrrrrrrerrrrrer",
"rrrrrrrrrrrrrrrrrrrrrrrrrrrrrryyrrrryrrrrrrrrrrrerrrrrrrrrrrrrrr",
"rrqerrrrrrrrrrrrrrrrrrrrwrrrrrerrryrrrrrrrrrrwrrrrrrrrrrrrrrrrqr",
"rrrreerrrrrrrrrrrrrrqrrrrrrrrrrrrrrwrrrrrrrrrrrrrrrrrrrrryqerrrr",
"rrrrrrryrrrrrrrrrrrryrrrrrrrrrrrrrrryrrrrrrrrrrqyerrrrrrrrrrqrrr",
"rrqrrrqyrrrrrqqrrrrrrrrrreryrrerrrrrrrrrrrqyrrrrrrrrrrrqrrrrryrr",
"rrrreryrryrrrrrrrrrrrrrrrrrrrrrrrrryqrrrqrrrrrrrrqrrrrrrrrrrerrr",
"rrrqrrrrrrrrrrrrrrrrrrrrrrerrrrrrrrrrrrrrrrrrrrrrrrrereerrrrrrrr",
"rrrrrrrrerrrerrrrrrrerrrrrerrrrrrrrrrrrrqrrrrrqrrrrrrrrrrrrrrrrr",
"rrrrrrrrrerrrrrrrrrrrrrrrrrrrrrrrerrrrrerrrrreryrrrrrrrrrqrrrrer",
"rrrrrrrrrryyrrqerrrrrrrrrrryrrrqqrrrrrrrrrrrrrrrrrrryrrrrrrrrrrr",
"rrqrrrrrrrrrqrrrrrerryqrrrrrrrrrrrrrrrrrrrrrrrrrerrrrrrrrerqrrrr",
"errrrrrrryrrrrrrrryrrrryrrrrrrryrryrrrrrrrrrrrerrrrrrrrrrrrrrrrr",
"rrrrrerrrrrrrrrrrqrrrrrrrrrrrrerrrrrrrrrrrrrrrrqrrrrrrryryrrrrrr",
"rrrrrryrrerryqrrerrrrrrrrrrrrrrrrerrrrrrrrrrrrrrrrrrrrrrrrrrrrrr",
"rrrrrrerrrryrerrrryrrrrrrrrrrrrrrrerrrrqrrrrqrrrrrrrrrrqrrrrrrrr",
"rrrrreqrrrrrrrrrrrrrrrrrrrrrrrrrrrrrryyyerrrrrrrrrrrrrrrrrrrrrqr",
"rrrrrrrrrrrqrrrryereyrry&&=&&8666&&&&&&&&&rryrryrrrrrrrrrererrrr",
"rrrrrerrrrrerrrrrrqrrryr&&&&&6666&&&&&&&&&rrrrrrrerrqrrrrtrrrryr",
"rrrerrryrrrrrrryrrr&&&&&&&67622&&&=&&&&&&&&&&&&rrrrrrrrrqrerrrrr",
"rqrrrrrrryrrrrrrrrq&&*-=&&69643&&&&&&&&&&&&--&&rrrrrrrqrrrrrrrrr",
"rrrrrrrrrrrrrrrrr&&&&&&=&&222+++++++@+++-&&&&&&&&rrqrrrrrrrrrrrr",
"rrrrryrrrryrrqrrr&&&&&&&&&222+#+$++++@++&&&&&&&&&ryrrrrrrrrrrrrr",
"rrrrrrrrqrrrrry&&=&&&&++&*;;;22+###@+++++++++;:;;&&erryrrrrrrrrr",
"ryrrrrrrrrrrrrr&&&&&&-++=&;;;22++++++++++++++;;:;&&rrrqrrrrrrrrr",
"rrrrrrrrrrrrrrr*&&&-&&++&&;;;22++++++$$++++++;;;;&&ryrrrrrrrrrrr",
"rrrrrrrrrrrrrrr&&*&+++++&&222>>68 . o ++++;;;6666=&rrrrrrrrrrrrq",
"rrrrrrrrrrrrrrr&&&&+++++&&222<>66    X++++:;;6966&=rrrrrqrrrrrrr",
"rrrrrrrrrrerrqr&&@+++#  &*422  >>86     o 66822&&&&rrerrrerrrrrr",
"rrrrrrrrrrrrrrr&&+++++  &&222  >>66    X  67622&&&-rrrrrrrrrrrrr",
"rqrrrrrrrrrrrrq&&#+   o *&522  o ;;686  ;;666    &&rrrqrrrqrrrrr",
"rrerqrrrrrrrrer-&++ .   &-225    ;;666  ;;666    &&rrrrrrrrrrrre",
"rerryrrrrrrrryr&&++     &&222  .X;;666  ;;666    &=rrrrrerrrrrrr",
"rrrrrrrrrrrqyrr*&     o &&>>>22   o>>>22&&676    -&rrrrrrrrrerrr",
"rrrrrrrrrrrrrrr&&       &&>>>22    >>>42&&666  . &&rrrrrrrrqqrrr",
"rrrrrrrrrrrrrrq&&o      &*>1>,>22     >>&&222o   &&qrrrrryrrrrrr",
"rrrrrrqrrrqryrr&&      X&&><>><22     >>&&222 X  &&yrreerrrrrrrr",
"rqrrrrrrrrrerrr-&       &&>>>  >>22   . &-222    &=errrrrrrrrrrr",
"errrrrrrrrrrrrr&&       &&>>>  >>22     &&222    &&rrreqrrrrrrrr",
"rrrrrrrrerrrrrr&=       ++&&&    >>325O &=252    &&rrrrryrrrrrrr",
"rrrrrrrrrrrrrrr&& o     ++&&&    >>224  =&432X   &&rrrrrrrrrrerr",
"rrrrryrrrrrrrrr&&      o#+&&&    >>222  &&222    =&rrrrrrrrrrqrr",
"rrrrrrrrrr0errr&&         &&&>>    ;;;22&&332    &&rrrrrryrrrrrr",
"rrrrrryrrrrrrrr-=         &&&>>    ;;;25&&222   o&&rerrrrerrrryr",
"rrrrrrrrrrrrrrr&&++  o    X  &-&&  o  ;;&=222  #+&&yrrrrrrrrqrrr",
"rrrrrrrrrrrerrr&&++ X   .   X&&&&    o;:&&225 o++&&rrrrrrrrrrrrr",
"rrrrrrrryrrrrrrry&&+++X        =&&&o   o&&&&&  &&rrerrrrrrrrrryr",
"qrrqrrrrrerrrrrre&&+++       . &-&&   .X&&&&=  &&rrrrrrrrrrrrrrr",
"yrrrrrrrrrrerrryrrr&&&++++       &&&&&  &&+%+&&reerrrrrrrrrrrrrr",
"rrrrryrrrerrrrrrrrr&=&++++    .  &&&&&  -&++#&*rryrrrrrrryrrrrrr",
"rrrrrrrrrrerrrrrrrr&&&+++$ X   X &&&&& o&&+++&&ryrrrrrrrrrrrerrr",
"errrrrrrrrryrrrrrrrrerrrrr&&&&&&&&&&&&&&-&rrrrrrrrqrrrrrrrrrrrry",
"rrrrqrrrrrrrrrrrrrrrrrrrrr&&&&&&&&&&&&&&&&rrrrrrrrrrrrrrrrrrrryr",
"qrrrrqrryrqrrrrrrqrrrqrrrrrrrrrrrrrqrrrrrrrrerrrrrrrrrrrrrrrrrrr",
"rrrrrrrrrrrrrrrrrrrrerrrrrrrerrrrrrrrrrrrrrrreyrrrrrrrrrreyrrryr",
"rryrrrrrrrrrrrrrrrrrrrrrrrrryyrrrrrrrrrrrrrrrrrrrrrrrrrerrrrrrrr",
"rrrrrererrrrrrrrrrrrryrrrrrrrrrrrrrrerrrrrrrrrrrrrreyrrrerrrrrrr",
"rrrqrryrrrrrrqrrrrerrrrrqrrrrrrrerrrrrrrrrrqrrrrrrrrrrrrreqryrer",
"rrrryrrrrrrrrrrqrrrrrrrrrrrrrrrqrryrrrrqrryrrrrrrrrrrrrrrrrrrrrr",
"rrrrrrrerrqrrrrerrrrrreqrrrrrrrrrqrrryrrryrrrryrrrrrrrrryrrrrrrr",
"rrerrrrrrrrrrrrrqrrrrrrrrrqqerrrrrrqrrerrrrrryrrerrrryryrrrryrrr",
"rryrrrrrrerrrrrrryrrrrrrrrryrrrrrrrrrrrrrrrqryrrrrrrrrrrrrrrrrrr",
"qrrrrrrryrrrrrrrrrrrqrrrrrrrrrerryrrrrrrryrrrrrrrrerrrrrrrrrrrer",
"rrrrrrrrrrerrrrrrrrrrrrrrrrrrrrrrrrrrqrrrrqrrrrrrrrrrrrrryrrrrqr"
};
